<mxfile host="app.diagrams.net" modified="2022-02-07T10:12:29.406Z" agent="5.0 (X11; Linux x86_64) AppleWebKit/537.36 (KHTML, like Gecko) Chrome/97.0.4692.99 Safari/537.36 OPR/83.0.4254.27" etag="JQAJVXYnWGDamUMwaEIT" version="16.5.3" type="github">
  <diagram id="Lbe8666yk9FyNb0JV7xu" name="Page-1">
    <mxGraphModel dx="1326" dy="777" grid="1" gridSize="10" guides="1" tooltips="1" connect="1" arrows="1" fold="1" page="1" pageScale="1" pageWidth="827" pageHeight="1169" math="0" shadow="0">
      <root>
        <mxCell id="0" />
        <mxCell id="1" parent="0" />
        <mxCell id="ngfTm_ITraplMa7OJyzi-3" value="2" style="ellipse;whiteSpace=wrap;html=1;aspect=fixed;" vertex="1" parent="1">
          <mxGeometry x="380" y="119" width="40" height="40" as="geometry" />
        </mxCell>
        <mxCell id="ngfTm_ITraplMa7OJyzi-27" style="edgeStyle=none;rounded=0;orthogonalLoop=1;jettySize=auto;html=1;exitX=0.5;exitY=1;exitDx=0;exitDy=0;entryX=0;entryY=0;entryDx=0;entryDy=0;strokeColor=#000000;" edge="1" parent="1" source="ngfTm_ITraplMa7OJyzi-5" target="ngfTm_ITraplMa7OJyzi-25">
          <mxGeometry relative="1" as="geometry" />
        </mxCell>
        <mxCell id="ngfTm_ITraplMa7OJyzi-5" value="3" style="ellipse;whiteSpace=wrap;html=1;aspect=fixed;" vertex="1" parent="1">
          <mxGeometry x="340" y="199" width="40" height="40" as="geometry" />
        </mxCell>
        <mxCell id="ngfTm_ITraplMa7OJyzi-6" value="4" style="ellipse;whiteSpace=wrap;html=1;aspect=fixed;" vertex="1" parent="1">
          <mxGeometry x="420" y="199" width="40" height="40" as="geometry" />
        </mxCell>
        <mxCell id="ngfTm_ITraplMa7OJyzi-9" value="" style="endArrow=classic;html=1;rounded=0;entryX=0.5;entryY=0;entryDx=0;entryDy=0;exitX=0;exitY=1;exitDx=0;exitDy=0;" edge="1" parent="1" source="ngfTm_ITraplMa7OJyzi-3" target="ngfTm_ITraplMa7OJyzi-5">
          <mxGeometry relative="1" as="geometry">
            <mxPoint x="390" y="160" as="sourcePoint" />
            <mxPoint x="460" y="489" as="targetPoint" />
          </mxGeometry>
        </mxCell>
        <mxCell id="ngfTm_ITraplMa7OJyzi-10" value="T" style="edgeLabel;resizable=0;html=1;align=center;verticalAlign=middle;" connectable="0" vertex="1" parent="ngfTm_ITraplMa7OJyzi-9">
          <mxGeometry relative="1" as="geometry" />
        </mxCell>
        <mxCell id="ngfTm_ITraplMa7OJyzi-14" value="" style="endArrow=classic;html=1;rounded=0;strokeColor=#000000;entryX=0.5;entryY=0;entryDx=0;entryDy=0;exitX=1;exitY=1;exitDx=0;exitDy=0;" edge="1" parent="1" source="ngfTm_ITraplMa7OJyzi-3" target="ngfTm_ITraplMa7OJyzi-6">
          <mxGeometry relative="1" as="geometry">
            <mxPoint x="400" y="159" as="sourcePoint" />
            <mxPoint x="500" y="159" as="targetPoint" />
          </mxGeometry>
        </mxCell>
        <mxCell id="ngfTm_ITraplMa7OJyzi-15" value="F" style="edgeLabel;resizable=0;html=1;align=center;verticalAlign=middle;" connectable="0" vertex="1" parent="ngfTm_ITraplMa7OJyzi-14">
          <mxGeometry relative="1" as="geometry" />
        </mxCell>
        <mxCell id="ngfTm_ITraplMa7OJyzi-20" value="" style="curved=1;endArrow=classic;html=1;rounded=0;strokeColor=#000000;entryX=1;entryY=0.5;entryDx=0;entryDy=0;exitX=1;exitY=0.5;exitDx=0;exitDy=0;dashed=1;" edge="1" parent="1" source="ngfTm_ITraplMa7OJyzi-25" target="ngfTm_ITraplMa7OJyzi-22">
          <mxGeometry width="50" height="50" relative="1" as="geometry">
            <mxPoint x="350" y="229" as="sourcePoint" />
            <mxPoint x="390" y="139" as="targetPoint" />
            <Array as="points">
              <mxPoint x="520" y="280" />
              <mxPoint x="520" y="80" />
            </Array>
          </mxGeometry>
        </mxCell>
        <mxCell id="ngfTm_ITraplMa7OJyzi-22" value="1" style="ellipse;whiteSpace=wrap;html=1;aspect=fixed;" vertex="1" parent="1">
          <mxGeometry x="380" y="40" width="40" height="40" as="geometry" />
        </mxCell>
        <mxCell id="ngfTm_ITraplMa7OJyzi-24" value="" style="endArrow=classic;html=1;rounded=0;strokeColor=#000000;entryX=0.5;entryY=0;entryDx=0;entryDy=0;exitX=0.5;exitY=1;exitDx=0;exitDy=0;" edge="1" parent="1" source="ngfTm_ITraplMa7OJyzi-22" target="ngfTm_ITraplMa7OJyzi-3">
          <mxGeometry width="50" height="50" relative="1" as="geometry">
            <mxPoint x="380" y="130" as="sourcePoint" />
            <mxPoint x="430" y="80" as="targetPoint" />
          </mxGeometry>
        </mxCell>
        <mxCell id="ngfTm_ITraplMa7OJyzi-25" value="5" style="ellipse;whiteSpace=wrap;html=1;aspect=fixed;" vertex="1" parent="1">
          <mxGeometry x="380" y="280" width="40" height="40" as="geometry" />
        </mxCell>
        <mxCell id="ngfTm_ITraplMa7OJyzi-26" value="" style="endArrow=classic;html=1;rounded=0;strokeColor=#000000;exitX=0.5;exitY=1;exitDx=0;exitDy=0;entryX=1;entryY=0;entryDx=0;entryDy=0;" edge="1" parent="1" source="ngfTm_ITraplMa7OJyzi-6" target="ngfTm_ITraplMa7OJyzi-25">
          <mxGeometry width="50" height="50" relative="1" as="geometry">
            <mxPoint x="390" y="430" as="sourcePoint" />
            <mxPoint x="440" y="380" as="targetPoint" />
          </mxGeometry>
        </mxCell>
      </root>
    </mxGraphModel>
  </diagram>
</mxfile>
